<svg version="1.2" baseProfile="tiny-ps" xmlns="http://www.w3.org/2000/svg" viewBox="0 0 1500 1500" width="1500" height="1500">
	<title>3129571-ai</title>
	<style>
		tspan { white-space:pre }
		.shp0 { fill: #f5f5f5 } 
		.shp1 { fill: #263238 } 
		.shp2 { fill: #407bff } 
		.shp3 { opacity: 0.8;fill: #ffffff } 
		.shp4 { opacity: 0.302;fill: #000000 } 
		.shp5 { opacity: 0.102;fill: #000000 } 
		.shp6 { fill: #ff8b7b } 
		.shp7 { opacity: 0.2;fill: #000000 } 
		.shp8 { opacity: 0.6;fill: #000000 } 
		.shp9 { fill: #ff5652 } 
	</style>
	<g id="Shadow">
		<path id="&lt;Path&gt; 32 " class="shp0" d="M1331.67 1248.71C1331.67 1267.48 1071.25 1282.68 750 1282.68C428.75 1282.68 168.33 1267.48 168.33 1248.71C168.33 1229.95 428.75 1214.74 750 1214.74C1071.25 1214.74 1331.67 1229.95 1331.67 1248.71Z" />
	</g>
	<g id="Car">
		<g id="&lt;Group&gt;">
			<g id="&lt;Group&gt;">
				<g id="&lt;Group&gt;">
					<path id="&lt;Path&gt;" class="shp1" d="M708.19 1242.3C745.77 1242.3 776.25 1181.94 776.25 1107.48C776.25 1033.02 745.77 972.66 708.19 972.66L620.87 972.66L620.87 1242.3L708.19 1242.3Z" />
					<path id="&lt;Path&gt;" class="shp1" d="M552.48 1107.48C552.48 1033.02 582.95 972.66 620.54 972.66C658.13 972.66 688.6 1033.02 688.6 1107.48C688.6 1181.94 658.13 1242.3 620.54 1242.3C582.95 1242.3 552.48 1181.94 552.48 1107.48Z" />
				</g>
				<g id="&lt;Group&gt;">
					<path id="&lt;Path&gt;" class="shp1" d="M1207.29 1242.3C1244.87 1242.3 1275.34 1181.94 1275.34 1107.48C1275.34 1033.02 1244.87 972.66 1207.29 972.66L1119.96 972.66L1119.96 1242.3L1207.29 1242.3Z" />
					<path id="&lt;Path&gt;" class="shp1" d="M1051.58 1107.48C1051.58 1033.02 1082.05 972.66 1119.64 972.66C1157.23 972.66 1187.7 1033.02 1187.7 1107.48C1187.7 1181.94 1157.23 1242.3 1119.64 1242.3C1082.05 1242.3 1051.58 1181.94 1051.58 1107.48Z" />
				</g>
				<path id="&lt;Path&gt;" class="shp2" d="M262.02 1174.4L215.41 1162.93C199.44 1159.01 186.03 1148.24 178.75 1133.5L178.71 1133.43C175.54 1127 171.15 1121.24 165.78 1116.47L154.33 1106.29C141.05 1094.47 134.19 1077.02 135.89 1059.32L142.2 993.39C144.37 970.75 160.07 951.7 181.87 945.25L215.19 935.39L335.42 926.83L262.02 1174.4Z" />
				<g id="&lt;Group&gt;">
					<path id="&lt;Path&gt;" class="shp1" d="M363.7 1242.3C401.28 1242.3 431.75 1181.94 431.75 1107.48C431.75 1033.02 401.28 972.66 363.7 972.66L276.38 972.66L276.38 1242.3L363.7 1242.3Z" />
					<path id="&lt;Path&gt;" class="shp1" d="M207.99 1107.48C207.99 1033.02 238.46 972.66 276.05 972.66C313.64 972.66 344.11 1033.02 344.11 1107.48C344.11 1181.94 313.64 1242.3 276.05 1242.3C238.46 1242.3 207.99 1181.94 207.99 1107.48Z" />
					<path id="&lt;Path&gt;" class="shp2" d="M228.3 1107.48C228.3 1048.62 249.68 1000.91 276.05 1000.91C302.42 1000.91 323.8 1048.62 323.8 1107.48C323.8 1166.34 302.42 1214.05 276.05 1214.05C249.68 1214.05 228.3 1166.34 228.3 1107.48Z" />
				</g>
				<path id="&lt;Path&gt;" class="shp2" d="M966.75 1174.4L1084.29 911.73C967.04 824.44 834.09 780.8 685.44 780.8C323.8 780.8 336.21 829.55 215.19 935.39L268.01 972.66C362 972.66 369.84 1121.65 384.86 1163.56C387.19 1170.05 393.33 1174.4 400.23 1174.4L966.75 1174.4Z" />
				<g id="&lt;Group&gt;">
					<path id="&lt;Path&gt;" class="shp1" d="M862.8 1242.3C900.38 1242.3 930.85 1181.94 930.85 1107.48C930.85 1033.02 900.38 972.66 862.8 972.66L775.47 972.66L775.47 1242.3L862.8 1242.3Z" />
					<path id="&lt;Path&gt;" class="shp1" d="M707.09 1107.48C707.09 1033.02 737.56 972.66 775.15 972.66C812.74 972.66 843.21 1033.02 843.21 1107.48C843.21 1181.94 812.74 1242.3 775.15 1242.3C737.56 1242.3 707.09 1181.94 707.09 1107.48Z" />
					<path id="&lt;Path&gt;" class="shp2" d="M727.4 1107.48C727.4 1048.62 748.78 1000.91 775.15 1000.91C801.52 1000.91 822.9 1048.62 822.9 1107.48C822.9 1166.34 801.52 1214.05 775.15 1214.05C748.78 1214.05 727.4 1166.34 727.4 1107.48Z" />
				</g>
				<path id="&lt;Path&gt;" class="shp2" d="M896.62 1152.72C885.79 1103.51 834.01 972.81 771.92 972.81L704.67 911.73C924.33 911.73 1050.87 911.73 1084.29 911.73C1110.58 911.73 1227.29 927.86 1293.44 972.66C1346.87 1008.85 1353.37 1063.76 1361.13 1144.02C1362.72 1160.4 1348.38 1174.48 1330.27 1174.49C1178.16 1174.56 994.07 1175.08 927.06 1175.28C912.27 1175.33 899.52 1165.89 896.62 1152.72Z" />
				<path id="&lt;Path&gt;" class="shp3" d="M1056.85 911.73L809.37 911.73C797.76 911.73 786.8 906.1 780.3 896.47C752.76 855.66 704.01 814.32 668.29 794.73C835.09 794.73 964.61 833.73 1056.85 911.73Z" />
				<path id="&lt;Path&gt;" class="shp3" d="M662.17 807.03C692.19 828.74 726.31 862.41 745.46 895.87C749.51 902.93 744.48 911.73 736.34 911.73L330.89 911.73C287.89 911.73 302.15 804.56 526.89 796.54C548.06 794.71 597.46 794.65 624.76 794.77C638.22 794.83 651.26 799.14 662.17 807.03Z" />
				<path id="&lt;Path&gt;" class="shp1" d="M939.52 1115.91L1069.49 1125.72C1073.69 1126.04 1076.94 1129.54 1076.94 1133.75L1076.94 1142.63C1076.94 1147.08 1073.34 1150.69 1068.89 1150.69L938.91 1150.69C934.46 1150.69 930.85 1147.08 930.85 1142.63L930.85 1123.95C930.85 1119.26 934.84 1115.56 939.52 1115.91Z" />
				<path id="&lt;Path&gt;" class="shp1" d="M1352.7 1117.8L1316.9 1124.99C1313.14 1125.74 1310.43 1129.05 1310.43 1132.89L1310.43 1142.64C1310.43 1147.09 1314.04 1150.69 1318.49 1150.69L1356.31 1150.69C1361.14 1150.69 1364.88 1146.47 1364.31 1141.68L1362.29 1124.75C1361.73 1120.08 1357.31 1116.88 1352.7 1117.8Z" />
				<path id="&lt;Path&gt;" class="shp3" d="M1046.48 964.75L864.99 955.93C863.76 977.36 885.55 990.39 930.38 995.01C975.21 999.63 1013.91 989.54 1046.48 964.75Z" />
				<path id="&lt;Path&gt;" class="shp4" d="M142.21 993.37C142.72 987.97 144 982.79 145.95 977.93L158.24 977.58C158.63 1009.03 152.88 1023.77 141.01 1021.8C140.5 1021.72 140.04 1021.61 139.53 1021.45L142.21 993.37Z" />
				<path id="&lt;Path&gt;" class="shp3" d="M1275.57 961.87C1281.83 965.25 1287.82 968.83 1293.42 972.64C1302.72 978.94 1310.57 985.79 1317.26 993.26C1314.89 993.96 1312.32 994.54 1309.56 995.01C1282.7 999.62 1259.51 989.54 1239.99 964.75L1275.57 961.87Z" />
				<path id="&lt;Path&gt;" class="shp1" d="M1102.7 1015.44L1231.15 1015.44C1235.57 1015.44 1239.97 1016.85 1243.71 1019.47L1266.16 1035.21C1271.33 1038.83 1274.78 1044.44 1275.6 1050.54L1281.33 1093.05C1282.93 1105.01 1274.15 1115.14 1262.17 1115.14L1124.81 1115.14C1116.62 1115.14 1108.87 1110.31 1105.03 1102.83L1079.36 1052.81C1075.63 1045.54 1076.26 1037.07 1080.98 1031L1087.4 1022.76C1091.02 1018.12 1096.61 1015.44 1102.7 1015.44Z" />
				<path id="&lt;Path&gt;" class="shp5" d="M425.69 1119.15L676.85 1119.15C680.36 1119.15 683.11 1122.16 682.8 1125.65L681.5 1140.27C681.23 1143.36 678.65 1145.72 675.55 1145.72L424.39 1145.72C420.88 1145.72 418.13 1142.71 418.44 1139.22L419.74 1124.59C420.01 1121.51 422.59 1119.15 425.69 1119.15Z" />
				<path id="&lt;Path&gt;" class="shp2" d="M505.76 794.73L520.81 791.81L490.04 926.83L475.65 926.83L505.76 794.73Z" />
				<path id="&lt;Path&gt;" class="shp1" d="M560.63 941.97L509.2 941.97L507.87 947.37C506.49 952.98 509.92 957.52 515.53 957.52L546.64 957.52C552.25 957.52 557.91 952.98 559.3 947.37L560.63 941.97Z" />
				<path id="&lt;Path&gt;" class="shp1" d="M383.67 941.97L332.25 941.97L330.92 947.37C329.54 952.98 332.96 957.52 338.57 957.52L369.69 957.52C375.29 957.52 380.96 952.98 382.34 947.37L383.67 941.97Z" />
			</g>
			<path id="&lt;Path&gt;" class="shp5" d="M484.39 1101.69C483.46 1101.69 482.7 1100.95 482.68 1100.01L478.9 923.24C478.88 922.3 479.63 921.51 480.58 921.49C480.59 921.49 480.61 921.49 480.62 921.49C481.55 921.49 482.31 922.23 482.33 923.17L486.11 1099.94C486.13 1100.88 485.38 1101.67 484.43 1101.69C484.42 1101.69 484.41 1101.69 484.39 1101.69Z" />
		</g>
	</g>
	<g id="Character">
		<g id="&lt;Group&gt;">
			<path id="&lt;Path&gt;" class="shp6" d="M586.21 1230.55L568.48 1230.27L563.37 1189.17L581.1 1189.44L586.21 1230.55Z" />
			<path id="&lt;Path&gt;" class="shp6" d="M478.28 1230.13L462.09 1221.1L474.19 1182.95L490.39 1191.99L478.28 1230.13Z" />
			<path id="&lt;Path&gt;" class="shp1" d="M460.55 1218.97L479.34 1229.63C479.97 1229.98 480.26 1230.73 480.05 1231.42L475.33 1246.85C474.84 1248.45 472.96 1249.16 471.52 1248.31C465.53 1244.78 461.32 1241.92 453.7 1237.6C449.02 1234.94 434.62 1227.42 428.15 1223.75C421.82 1220.16 424.46 1213.2 427.44 1214.13C440.79 1218.26 451.77 1219.76 457.51 1218.5C458.54 1218.27 459.63 1218.44 460.55 1218.97Z" />
			<path id="&lt;Path&gt;" class="shp1" d="M568.12 1228.22L587.47 1228.52C588.19 1228.53 588.81 1229.05 588.96 1229.76L592.21 1245.56C592.55 1247.2 591.29 1248.72 589.61 1248.67C582.64 1248.44 572.56 1247.87 563.79 1247.74C553.53 1247.58 544.66 1248 532.63 1247.81C525.36 1247.69 523.46 1240.31 526.51 1239.69C540.42 1236.88 551.74 1236.73 563.83 1229.53C565.15 1228.75 566.59 1228.19 568.12 1228.22Z" />
			<path id="&lt;Path&gt;" class="shp6" d="M559.73 710.8C549.46 719.21 539.11 726.81 528.07 734.08C522.53 737.65 516.93 741.19 510.95 744.41C504.93 747.64 498.88 750.8 491.38 753.21C489.48 753.8 487.45 754.35 485.18 754.77C484.04 754.98 482.72 755.13 481.47 755.25C480.09 755.34 478.66 755.33 477.17 755.2C474.19 754.94 471 754.07 468.17 752.57C465.33 751.08 462.95 749.04 461.16 746.95C457.55 742.69 455.83 738.41 454.62 734.5C453.48 730.55 452.9 726.82 452.54 723.2C451.4 708.75 453.26 695.8 456.41 682.63L469.58 684.45C469.78 696.51 470.49 709.23 473.01 719.99C473.64 722.65 474.45 725.16 475.39 727.21C476.29 729.27 477.42 730.84 478.12 731.3C478.46 731.55 478.63 731.52 478.65 731.42C478.67 731.33 478.61 731.27 478.81 731.22C478.99 731.18 481.06 730.74 483.24 729.82C487.74 727.97 492.96 725.09 497.96 721.98C503 718.84 508.09 715.47 513.09 711.94C523.1 704.91 533.21 697.35 542.84 689.91L559.73 710.8Z" />
			<g id="&lt;Group&gt;">
				<path id="&lt;Path&gt;" class="shp2" d="M565.15 702.64C557.07 720.83 525.97 739.68 508.72 747.57C503.62 749.9 504.26 756.75 501.25 753.78C492.39 737.52 487.96 727.73 487.96 724.4C487.96 719.4 492.35 722.39 495.97 719.05C508.92 707.12 536.04 680.68 552.92 677.77C575.09 673.93 572.7 685.65 565.15 702.64Z" />
			</g>
			<path id="&lt;Path&gt;" class="shp1" d="M489.81 721.23C488.1 718.71 481.01 725.32 478.76 728.06C476.51 730.79 482.7 740.84 484.57 746.12C486.45 751.4 482.77 756.89 488.47 757.71C491.5 758.14 500.02 757.03 501.67 754.84C505.53 749.7 493.91 727.28 489.81 721.23Z" />
			<path id="&lt;Path&gt;" class="shp7" d="M530.52 735.64C545.03 726.49 559.92 714.43 565.16 702.64C565.51 701.83 565.88 701.06 566.19 700.28L566.5 697.3C546.77 700.65 533.4 720.57 530.52 735.64Z" />
			<path id="&lt;Path&gt;" class="shp6" d="M466.97 689.84L478.42 672.89L459.74 665.28C452.7 673.24 451.67 680.73 456.65 687.75L466.97 689.84Z" />
			<path id="&lt;Path&gt;" class="shp6" d="M483.22 654.63L466.05 654.06L459.74 665.28L478.42 672.89L483.22 654.63Z" />
			<path id="&lt;Path&gt;" class="shp7" d="M563.38 1189.18L566.01 1210.36L583.74 1210.64L581.11 1189.46L563.38 1189.18Z" />
			<path id="&lt;Path&gt;" class="shp7" d="M490.39 1192L474.18 1182.96L467.95 1202.63L484.16 1211.67L490.39 1192Z" />
			<g id="&lt;Group&gt;">
				<path id="&lt;Path&gt;" class="shp2" d="M651.98 684.25C632.89 751.56 636.74 823 635.02 837.46C621.16 836.45 568.96 832.56 540.5 830.43C534.46 762.93 538.6 712.04 552.92 677.77C556.97 676.98 561.75 676.3 567.26 675.74C569.85 675.47 572.64 675.24 575.56 675.09C577.16 674.99 578.8 674.94 580.45 674.9C591.15 674.73 608.61 676.43 620.64 677.9C623.16 678.21 625.72 678.59 628.2 679C630.5 679.39 632.76 679.81 634.89 680.23C641.32 681.51 647.01 682.85 651.98 684.25Z" />
			</g>
			<path id="&lt;Path&gt;" class="shp1" d="M580.45 674.91C572.48 679.16 570.18 694.76 585.57 695.36C600.96 695.96 616.24 685.14 620.63 677.89L580.45 674.91Z" />
			<path id="&lt;Path&gt;" class="shp7" d="M631.81 713.13C630.11 719.64 632.06 749.35 638.85 756.68C639.78 747.17 641.02 737.23 642.65 727.08L631.81 713.13Z" />
			<path id="&lt;Path&gt;" class="shp6" d="M620.02 632.36C616.52 645.1 612.23 668.59 620.63 677.89C613.08 684.35 604.41 688.9 589.02 688.3C573.63 687.69 575.99 680.18 580.45 674.91C595.13 672.54 595.55 661.81 593.79 651.58L620.02 632.36Z" />
			<path id="&lt;Path&gt;" class="shp7" d="M609.32 640.2L593.8 651.57C594.22 653.99 594.51 656.44 594.51 658.79C600.07 658.41 608.09 652.93 609.1 647.2C609.61 644.35 609.69 641.58 609.32 640.2Z" />
			<path id="&lt;Path&gt;" class="shp1" d="M580 627.48C572.76 617.31 570.2 608.24 572.31 600.27C576.39 584.97 601 603.73 580 627.48Z" />
			<path id="&lt;Path&gt;" class="shp6" d="M623 613.02C620.62 630.44 620.12 640.76 610.61 649.09C596.31 661.61 575.3 651.99 572.42 634.21C569.83 618.2 574.15 592.39 591.81 586.7C609.2 581.1 625.38 595.6 623 613.02Z" />
			<path id="&lt;Path&gt;" class="shp1" d="M581.75 631.44C581.75 634.11 579.31 634.73 577.33 635.94C576.01 636.74 574.87 637.95 573.92 639.58C572.23 639.01 571.73 637.22 572.42 634.21C573.45 629.68 581.75 628.94 581.75 631.44Z" />
			<path id="&lt;Path&gt;" class="shp1" d="M582.99 631.54C582.99 636.12 588.06 635.48 591.93 636.76C595.63 637.99 598.31 639.84 599.96 642.32C601.16 640.21 600.79 637.87 598.86 635.31C594 628.85 582.99 629.04 582.99 631.54Z" />
			<path id="&lt;Path&gt;" class="shp1" d="M609.55 597.27C598.63 600.5 567.99 603.89 571.73 588.22C576.95 566.33 590.76 577.75 592.88 580.86C601.67 574.5 640.48 580.06 632.74 592.62C641.15 593.91 646.06 603.08 639.98 607.61C633.91 612.13 626.59 630.63 622.54 630.1C617.31 629.41 612.57 628.07 608.32 626.09L616.5 615.06C609.76 608.63 607.44 602.7 609.55 597.27Z" />
			<path id="&lt;Path&gt;" class="shp1" d="M628.66 594.6C634.52 593.14 640.26 592.47 645.13 596.97C644.77 589.4 634.42 588.35 628.66 594.6Z" />
			<path id="&lt;Path&gt;" class="shp6" d="M629.47 632.9C626.69 636.74 622.39 638.94 618.54 639.49C612.73 640.32 610.59 634.95 612.84 629.87C614.86 625.3 620.32 619.36 625.84 620.86C631.27 622.33 632.65 628.51 629.47 632.9Z" />
			<g id="&lt;Group&gt;">
				<path id="&lt;Path&gt;" class="shp2" d="M559.42 1206.17L589.42 1206.62C577.86 1127.62 572.99 1069.73 574.79 1032.97C575.61 1016.19 572.93 992.72 577.36 967.58C582.95 935.89 585.65 923.25 592.88 883.21C596.33 864.17 599.58 848.12 602.63 835.06L540.5 830.44C526.97 925.66 520.41 991.29 520.81 1027.35C521.23 1064.83 534.1 1124.44 559.42 1206.17Z" />
				<path id="&lt;Path&gt;" class="shp8" d="M559.42 1206.17L589.42 1206.62C577.86 1127.62 572.99 1069.73 574.79 1032.97C575.61 1016.19 572.93 992.72 577.36 967.58C582.95 935.89 585.65 923.25 592.88 883.21C596.33 864.17 599.58 848.12 602.63 835.06L540.5 830.44C526.97 925.66 520.41 991.29 520.81 1027.35C521.23 1064.83 534.1 1124.44 559.42 1206.17Z" />
			</g>
			<path id="&lt;Path&gt;" class="shp7" d="M577.35 967.58C574.86 981.67 574.61 995.22 574.75 1007.36C569.58 1021.95 565.08 1035.77 561.94 1048.07C556.45 1069.59 547.75 1102.22 539.27 1133.59C530.07 1096.85 521.1 1054.4 520.82 1027.34L577.35 967.58Z" />
			<g id="&lt;Group&gt;">
				<path id="&lt;Path&gt;" class="shp2" d="M574.02 832.93C544.26 908.13 523.74 962.09 512.46 994.81C500.11 1030.64 483.96 1096.92 464.01 1193.66L492.24 1209.67C521.56 1129.93 542.29 1072.6 554.44 1037.7C575.18 978.06 632.34 883.82 635.01 837.47C594.35 834.45 574.02 832.93 574.02 832.93Z" />
				<path id="&lt;Path&gt;" class="shp8" d="M574.02 832.93C544.26 908.13 523.74 962.09 512.46 994.81C500.11 1030.64 483.96 1096.92 464.01 1193.66L492.24 1209.67C521.56 1129.93 542.29 1072.6 554.44 1037.7C575.18 978.06 632.34 883.82 635.01 837.47C594.35 834.45 574.02 832.93 574.02 832.93Z" />
			</g>
			<path id="&lt;Path&gt;" class="shp2" d="M460.28 1192.36L493.52 1211.21L499.16 1201.28L462.37 1179.56L460.28 1192.36Z" />
			<path id="&lt;Path&gt;" class="shp2" d="M555.64 1206.81L591.39 1207.37L591.57 1195.82L551.62 1194.58L555.64 1206.81Z" />
			<path id="&lt;Path&gt;" class="shp1" d="M599.67 615.94C599.56 617.36 598.72 618.46 597.79 618.39C596.86 618.32 596.19 617.11 596.3 615.69C596.4 614.26 597.24 613.16 598.18 613.23C599.11 613.3 599.78 614.51 599.67 615.94Z" />
			<path id="&lt;Path&gt;" class="shp1" d="M580.72 614.74C580.61 616.16 579.77 617.26 578.84 617.19C577.91 617.12 577.24 615.91 577.34 614.49C577.45 613.06 578.29 611.96 579.22 612.03C580.15 612.1 580.82 613.31 580.72 614.74Z" />
			<path id="&lt;Path&gt;" class="shp9" d="M585.05 615.83C582.48 621.15 579.91 625.04 577.33 627.51C578.9 629.2 581.13 629.8 584.04 629.3L585.05 615.83Z" />
			<path id="&lt;Path&gt;" class="shp1" d="M583.44 638.48C588.92 638.16 591.71 634.58 591.84 634.41C591.98 634.23 591.95 633.96 591.76 633.82C591.58 633.68 591.31 633.72 591.17 633.9C591.14 633.94 587.88 638.09 581.64 637.63C581.41 637.61 581.21 637.79 581.19 638.02C581.17 638.25 581.35 638.45 581.58 638.47C582.23 638.52 582.85 638.52 583.44 638.48Z" />
			<path id="&lt;Path&gt;" class="shp1" d="M602.66 611.1C602.8 611.1 602.94 611.05 603.06 610.97C603.45 610.72 603.57 610.2 603.31 609.81C600.8 605.91 596.92 605.85 596.76 605.85C596.29 605.85 595.92 606.22 595.91 606.68C595.91 607.15 596.28 607.52 596.75 607.53C596.87 607.53 599.89 607.61 601.9 610.72C602.07 610.98 602.37 611.12 602.66 611.1Z" />
			<path id="&lt;Path&gt;" class="shp1" d="M573.7 608.39C573.96 608.42 574.25 608.32 574.44 608.1C576.86 605.3 579.86 605.65 579.99 605.66C580.45 605.72 580.87 605.4 580.93 604.94C580.99 604.48 580.67 604.06 580.21 604C580.05 603.98 576.21 603.49 573.17 607C572.86 607.35 572.9 607.88 573.25 608.19C573.38 608.3 573.54 608.37 573.7 608.39Z" />
			<g id="&lt;Group&gt;">
				<path id="&lt;Compound Path&gt;" fill-rule="evenodd" class="shp2" d="M451.4 1216.3C451.11 1215.52 451.23 1214.73 451.74 1213.94C452.12 1213.36 452.61 1213.25 452.95 1213.27C455.15 1213.36 458.39 1219.23 458.75 1219.9C458.83 1220.05 458.82 1220.23 458.71 1220.36C458.61 1220.49 458.43 1220.55 458.27 1220.5C457.05 1220.15 455.35 1219.58 453.92 1218.77C452.75 1218.1 451.77 1217.28 451.4 1216.3ZM452.92 1214.1C452.79 1214.1 452.62 1214.13 452.44 1214.4C452.08 1214.96 451.99 1215.49 452.19 1216.01C452.63 1217.19 454.59 1218.43 457.5 1219.39C456.14 1217.07 454.06 1214.15 452.92 1214.1Z" />
				<path id="&lt;Compound Path&gt;" fill-rule="evenodd" class="shp2" d="M458.03 1220.32C456.93 1218.55 455.76 1213.43 457.06 1211.89C457.29 1211.61 457.83 1211.21 458.76 1211.59C458.76 1211.59 458.76 1211.59 458.76 1211.59C459.37 1211.84 459.8 1212.3 460.05 1212.95C461.01 1215.42 458.86 1220.08 458.77 1220.28C458.7 1220.42 458.56 1220.51 458.41 1220.52C458.33 1220.52 458.25 1220.5 458.18 1220.46C458.12 1220.43 458.07 1220.38 458.03 1220.32ZM458.44 1212.37C457.93 1212.16 457.77 1212.35 457.7 1212.43C456.93 1213.34 457.45 1217.01 458.35 1219.11C458.91 1217.71 459.88 1214.84 459.27 1213.25C459.13 1212.88 458.91 1212.62 458.61 1212.45C458.56 1212.42 458.5 1212.39 458.44 1212.37Z" />
				<path id="&lt;Compound Path&gt;" fill-rule="evenodd" class="shp2" d="M566.29 1230.65C563.42 1231.18 558.33 1231.8 556.42 1230.05C555.84 1229.52 555.59 1228.83 555.66 1227.99L555.66 1227.99C555.71 1227.49 555.95 1227.11 556.37 1226.89C558.54 1225.72 565.61 1229.44 566.41 1229.87C566.57 1229.96 566.65 1230.13 566.62 1230.31C566.6 1230.46 566.49 1230.59 566.34 1230.64C566.32 1230.65 566.3 1230.65 566.29 1230.65ZM556.77 1227.63C556.6 1227.72 556.52 1227.85 556.5 1228.07C556.45 1228.64 556.61 1229.08 556.98 1229.43C558.06 1230.41 560.97 1230.62 564.89 1230.04C562.11 1228.65 558.27 1227.12 556.92 1227.56C556.87 1227.58 556.82 1227.6 556.77 1227.63Z" />
				<path id="&lt;Compound Path&gt;" fill-rule="evenodd" class="shp2" d="M566.03 1230.62C563.91 1229.63 559.73 1225.73 560.09 1223.73C560.17 1223.26 560.51 1222.68 561.67 1222.58C562.53 1222.51 563.31 1222.76 563.98 1223.34C566.21 1225.23 566.61 1230.01 566.63 1230.21C566.64 1230.36 566.57 1230.5 566.45 1230.59C566.42 1230.61 566.38 1230.63 566.34 1230.64C566.24 1230.67 566.13 1230.67 566.03 1230.62ZM560.91 1223.88C560.7 1225.08 563.53 1228.13 565.69 1229.48C565.49 1228.08 564.9 1225.22 563.44 1223.98C562.93 1223.55 562.38 1223.37 561.74 1223.42C561.56 1223.44 561.42 1223.46 561.31 1223.5C560.96 1223.62 560.93 1223.81 560.91 1223.88ZM561.7 1223L561.69 1223.01L561.7 1223Z" />
			</g>
			<g id="&lt;Group&gt;">
				<path id="&lt;Path&gt;" class="shp6" d="M656.36 694.95C660.27 702.21 663.64 709.37 667.1 716.67C670.45 723.99 673.61 731.4 676.67 738.89C679.73 746.4 682.51 754.07 685.05 761.93L686.88 767.88L688.51 773.99C689.05 776.03 689.47 778.19 689.95 780.28L690.3 781.9L690.64 784.04C690.9 785.53 690.9 786.68 691.03 788.01C691.28 793 690.91 797.32 690.45 801.6C689.98 805.85 689.36 809.97 688.65 814.02C687.17 822.12 685.39 830 683.38 837.8C679.4 853.4 674.61 868.56 669.1 883.65L656.27 880.12C658.96 864.74 661.54 849.19 663.82 833.86C664.92 826.19 665.93 818.54 666.62 811C666.99 807.24 667.25 803.52 667.37 799.9C667.49 796.31 667.46 792.72 667.12 789.84C667 789.21 666.96 788.38 666.81 787.93L666.64 787.17L666.27 785.91C665.74 784.19 665.3 782.5 664.71 780.76L662.94 775.54L661 770.27C658.32 763.24 655.32 756.21 652.29 749.16C649.2 742.12 645.91 735.13 642.58 728.15C639.35 721.16 635.83 714.12 632.53 707.35L656.36 694.95Z" />
				<g id="&lt;Group&gt;">
					<path id="&lt;Path&gt;" class="shp2" d="M651.97 684.26C664.67 688.23 681.51 740.96 688.16 763.41C690.99 765.95 691.7 769.54 690.27 774.18L664.37 785.61C658.28 782.72 654.67 776.33 656.91 773.25C643.36 747.65 632.69 728.53 627.57 713.26C619.99 690.64 632.39 678.12 651.97 684.26Z" />
				</g>
				<path id="&lt;Path&gt;" class="shp1" d="M658.06 779.34C655.44 780.9 663.45 789.11 666.05 791.52C668.64 793.93 677.21 787.64 682.59 786.08C687.97 784.53 693.23 788.54 694.39 782.9C695.01 779.9 694.42 771.33 692.32 769.54C687.43 765.38 664.34 775.62 658.06 779.34Z" />
				<path id="&lt;Path&gt;" class="shp6" d="M659.56 872.55L645.72 884.06L662.94 896.49C670.49 888.51 672.57 882.13 669.18 877.35L659.56 872.55Z" />
				<path id="&lt;Path&gt;" class="shp6" d="M637.83 900.16L654.86 908.46L662.94 896.49L645.72 884.06L637.83 900.16Z" />
			</g>
		</g>
	</g>
</svg>